<?xml version="1.0" encoding="utf-8"?>
<!-- Svg Vector Icons : http://www.onlinewebfonts.com/icon -->
<!DOCTYPE svg PUBLIC "-//W3C//DTD SVG 1.1//EN" "http://www.w3.org/Graphics/SVG/1.1/DTD/svg11.dtd">
<svg version="1.1" xmlns="http://www.w3.org/2000/svg" xmlns:xlink="http://www.w3.org/1999/xlink" x="0px" y="0px" viewBox="0 0 256 256" enable-background="new 0 0 256 256" xml:space="preserve">
<metadata> Svg Vector Icons : http://www.onlinewebfonts.com/icon </metadata>
<g><g><g><path fill="#FFFFFF" d="M75.8,11.4c-1.2,0.8-13.9,10.8-28.2,22C29.8,47.3,21.3,54.2,21.1,54.9c-0.1,0.6-0.1,1.4,0.1,1.8c0.2,0.4,12.9,10.5,28.2,22.4c28.4,22.2,29.3,22.8,30.9,21.2c0.4-0.4,0.6-4,0.6-13.2V74.4l15.6,0.3c17.6,0.3,26.5,1.1,37.9,3.4c11.4,2.3,27.7,7.3,37.5,11.4c31.2,13.3,49.2,42.3,42.7,68.6c-1.2,4.8-5.1,13.1-8.2,17.1c-1.3,1.7-4.3,5.1-6.7,7.4c-4,3.9-4.4,4.5-4.4,6c0,2.2,0.6,3.3,2.4,4.2c2.1,1.1,4.5,0.6,7.4-1.5c11.5-8.4,20.2-20.6,25.2-36c9.4-28.2,3.9-59.5-13.9-79.4c-12.7-14.3-36.4-27.6-59.4-33.4c-16.2-4.1-29.1-5.4-57.8-5.9l-18.4-0.3V24c0-11.6,0-12.6-0.8-13.3C78.9,9.6,78.1,9.7,75.8,11.4z"/><path fill="#FFFFFF" d="M73.8,126.6c-33,11.7-32.8,11.6-30.8,13.8c0.5,0.6,12.4,5,31.6,11.8l30.9,10.9l31-10.9c17.1-6,31.3-11.1,31.6-11.4c0.3-0.2,0.6-0.9,0.6-1.5s-0.3-1.2-0.6-1.5c-0.7-0.6-60.3-21.7-62.1-22C105.1,115.7,95.4,118.9,73.8,126.6z"/><path fill="#FFFFFF" d="M33.3,150.6c-0.7,0.8-0.8,3.9-0.8,35.1c0,36.8,0,36.4,2.4,37.9c0.6,0.4,15.1,5.7,32.2,11.7c23.6,8.3,31.3,10.9,31.8,10.5c0.6-0.4,0.7-4,0.7-36.8v-36.4l-32.3-11.4c-17.8-6.3-32.5-11.4-32.8-11.4C34.2,149.8,33.7,150.1,33.3,150.6z"/><path fill="#FFFFFF" d="M143.5,161.3l-32.3,11.4l-0.1,35.5c0,19.5,0,36,0.1,36.5c0.1,0.6,0.6,1.1,1.1,1.3c1.4,0.4,63.2-21.6,64.7-23.1l1.2-1.2l0.1-35.3c0.1-31.7,0-35.4-0.6-36c-0.4-0.4-1-0.7-1.2-0.7C176,149.8,161.3,155,143.5,161.3z"/></g></g></g>
</svg>